<svg width="25" height="25" viewBox="0 0 25 25" fill="none" xmlns="http://www.w3.org/2000/svg">
<path fill-rule="evenodd" clip-rule="evenodd" d="M12.4531 2.77539C7.06812 2.77539 2.70312 7.14039 2.70312 12.5254C2.70312 17.9104 7.06812 22.2754 12.4531 22.2754C17.8381 22.2754 22.2031 17.9104 22.2031 12.5254C22.2031 7.14039 17.8381 2.77539 12.4531 2.77539ZM13.2031 6.52539C13.2031 6.32648 13.1241 6.13571 12.9835 5.99506C12.8428 5.85441 12.652 5.77539 12.4531 5.77539C12.2542 5.77539 12.0634 5.85441 11.9228 5.99506C11.7821 6.13571 11.7031 6.32648 11.7031 6.52539V12.5254C11.7031 12.9394 12.0391 13.2754 12.4531 13.2754H16.9531C17.152 13.2754 17.3428 13.1964 17.4835 13.0557C17.6241 12.9151 17.7031 12.7243 17.7031 12.5254C17.7031 12.3265 17.6241 12.1357 17.4835 11.9951C17.3428 11.8544 17.152 11.7754 16.9531 11.7754H13.2031V6.52539Z" fill="#F97316"/>
</svg>
