<svg width="25" height="25" viewBox="0 0 25 25" fill="none" xmlns="http://www.w3.org/2000/svg">
<path fill-rule="evenodd" clip-rule="evenodd" d="M2.70312 12.5254C2.70312 7.14039 7.06812 2.77539 12.4531 2.77539C17.8381 2.77539 22.2031 7.14039 22.2031 12.5254C22.2031 17.9104 17.8381 22.2754 12.4531 22.2754C7.06812 22.2754 2.70312 17.9104 2.70312 12.5254ZM16.0631 10.7114C16.1231 10.6314 16.1665 10.5403 16.1908 10.4433C16.2151 10.3464 16.2197 10.2455 16.2045 10.1467C16.1892 10.048 16.1544 9.95321 16.102 9.86809C16.0496 9.78296 15.9807 9.70917 15.8994 9.65104C15.8181 9.59292 15.7259 9.55163 15.6284 9.52962C15.5309 9.50761 15.43 9.50531 15.3316 9.52285C15.2332 9.5404 15.1393 9.57744 15.0554 9.6318C14.9715 9.68616 14.8993 9.75674 14.8431 9.83939L11.6071 14.3694L9.98312 12.7454C9.84095 12.6129 9.6529 12.5408 9.4586 12.5442C9.2643 12.5476 9.07892 12.6264 8.9415 12.7638C8.80409 12.9012 8.72538 13.0866 8.72195 13.2809C8.71852 13.4752 8.79065 13.6632 8.92313 13.8054L11.1731 16.0554C11.2501 16.1323 11.3429 16.1916 11.4451 16.229C11.5473 16.2665 11.6564 16.2813 11.7649 16.2723C11.8734 16.2634 11.9786 16.2309 12.0733 16.1772C12.1679 16.1235 12.2498 16.0499 12.3131 15.9614L16.0631 10.7114Z" fill="#22C55E"/>
</svg>
