<svg width="25" height="25" viewBox="0 0 25 25" fill="none" xmlns="http://www.w3.org/2000/svg">
<path fill-rule="evenodd" clip-rule="evenodd" d="M2.70312 12.5254C2.70312 7.14039 7.06812 2.77539 12.4531 2.77539C17.8381 2.77539 22.2031 7.14039 22.2031 12.5254C22.2031 17.9104 17.8381 22.2754 12.4531 22.2754C7.06812 22.2754 2.70312 17.9104 2.70312 12.5254ZM16.7271 11.5424C16.9023 11.6399 17.0482 11.7824 17.1498 11.9553C17.2514 12.1281 17.305 12.3249 17.305 12.5254C17.305 12.7259 17.2514 12.9227 17.1498 13.0955C17.0482 13.2684 16.9023 13.4109 16.7271 13.5084L11.1241 16.6214C10.9529 16.7164 10.7599 16.7651 10.5641 16.7627C10.3683 16.7602 10.1765 16.7067 10.0077 16.6074C9.83892 16.5081 9.69898 16.3665 9.60172 16.1966C9.50445 16.0266 9.45323 15.8342 9.45312 15.6384V9.41239C9.45312 8.55539 10.3741 8.01239 11.1241 8.42939L16.7271 11.5424Z" fill="#EAB308"/>
</svg>
