<svg width="17" height="17" viewBox="0 0 17 17" fill="currentColor" xmlns="http://www.w3.org/2000/svg">
<path clip-rule="evenodd" d="M11.3146 7.49989C11.4846 7.66996 11.5801 7.90059 11.5801 8.14107C11.5801 8.38155 11.4846 8.61218 11.3146 8.78225L6.18422 13.9126C6.10057 13.9992 6.00049 14.0683 5.88985 14.1158C5.7792 14.1634 5.6602 14.1884 5.53978 14.1894C5.41936 14.1905 5.29994 14.1675 5.18849 14.1219C5.07703 14.0763 4.97578 14.009 4.89062 13.9238C4.80547 13.8387 4.73813 13.7374 4.69253 13.626C4.64693 13.5145 4.62399 13.3951 4.62503 13.2747C4.62608 13.1543 4.6511 13.0353 4.69863 12.9246C4.74616 12.814 4.81525 12.7139 4.90187 12.6302L9.39103 8.14107L4.90187 3.65191C4.73667 3.48087 4.64526 3.25178 4.64732 3.014C4.64939 2.77621 4.74477 2.54875 4.91291 2.3806C5.08106 2.21245 5.30852 2.11707 5.54631 2.11501C5.78409 2.11294 6.01318 2.20435 6.18422 2.36955L11.3146 7.49989Z" fill="currentColor"/>
</svg>
