<svg width="25" height="24" viewBox="0 0 25 24" fill="none" xmlns="http://www.w3.org/2000/svg">
<path d="M5.38672 3.75C4.59107 3.75 3.82801 4.06607 3.2654 4.62868C2.70279 5.19129 2.38672 5.95435 2.38672 6.75V7.5H23.3867V6.75C23.3867 5.95435 23.0706 5.19129 22.508 4.62868C21.9454 4.06607 21.1824 3.75 20.3867 3.75H5.38672Z" fill="#697D99"/>
<path fill-rule="evenodd" clip-rule="evenodd" d="M23.3867 9.75H2.38672V17.25C2.38672 18.0456 2.70279 18.8087 3.2654 19.3713C3.82801 19.9339 4.59107 20.25 5.38672 20.25H20.3867C21.1824 20.25 21.9454 19.9339 22.508 19.3713C23.0706 18.8087 23.3867 18.0456 23.3867 17.25V9.75ZM5.38672 13.5C5.38672 13.3011 5.46574 13.1103 5.60639 12.9697C5.74704 12.829 5.93781 12.75 6.13672 12.75H12.1367C12.3356 12.75 12.5264 12.829 12.667 12.9697C12.8077 13.1103 12.8867 13.3011 12.8867 13.5C12.8867 13.6989 12.8077 13.8897 12.667 14.0303C12.5264 14.171 12.3356 14.25 12.1367 14.25H6.13672C5.93781 14.25 5.74704 14.171 5.60639 14.0303C5.46574 13.8897 5.38672 13.6989 5.38672 13.5ZM6.13672 15.75C5.93781 15.75 5.74704 15.829 5.60639 15.9697C5.46574 16.1103 5.38672 16.3011 5.38672 16.5C5.38672 16.6989 5.46574 16.8897 5.60639 17.0303C5.74704 17.171 5.93781 17.25 6.13672 17.25H9.13672C9.33563 17.25 9.5264 17.171 9.66705 17.0303C9.8077 16.8897 9.88672 16.6989 9.88672 16.5C9.88672 16.3011 9.8077 16.1103 9.66705 15.9697C9.5264 15.829 9.33563 15.75 9.13672 15.75H6.13672Z" fill="#697D99"/>
</svg>
