<svg width="25" height="24" viewBox="0 0 25 24" fill="none" xmlns="http://www.w3.org/2000/svg">
<path fill-rule="evenodd" clip-rule="evenodd" d="M20.3867 21C21.1824 21 21.9454 20.6839 22.508 20.1213C23.0706 19.5587 23.3867 18.7956 23.3867 18V9C23.3867 8.20435 23.0706 7.44129 22.508 6.87868C21.9454 6.31607 21.1824 6 20.3867 6H15.0077C14.8089 5.99982 14.6182 5.92069 14.4777 5.78L12.3567 3.66C12.1479 3.45089 11.8999 3.28497 11.6269 3.17173C11.3539 3.05848 11.0613 3.00013 10.7657 3H5.38672C4.59107 3 3.82801 3.31607 3.2654 3.87868C2.70279 4.44129 2.38672 5.20435 2.38672 6V18C2.38672 18.7956 2.70279 19.5587 3.2654 20.1213C3.82801 20.6839 4.59107 21 5.38672 21H20.3867ZM13.6367 10.5C13.6367 10.3011 13.5577 10.1103 13.417 9.96967C13.2764 9.82902 13.0856 9.75 12.8867 9.75C12.6878 9.75 12.497 9.82902 12.3564 9.96967C12.2157 10.1103 12.1367 10.3011 12.1367 10.5V14.69L10.4167 12.97C10.2745 12.8375 10.0865 12.7654 9.8922 12.7688C9.6979 12.7723 9.51251 12.851 9.3751 12.9884C9.23768 13.1258 9.15897 13.3112 9.15554 13.5055C9.15212 13.6998 9.22424 13.8878 9.35672 14.03L12.3567 17.03C12.4973 17.1705 12.688 17.2493 12.8867 17.2493C13.0855 17.2493 13.2761 17.1705 13.4167 17.03L16.4167 14.03C16.4904 13.9613 16.5495 13.8785 16.5905 13.7865C16.6315 13.6945 16.6535 13.5952 16.6553 13.4945C16.6571 13.3938 16.6386 13.2938 16.6008 13.2004C16.5631 13.107 16.507 13.0222 16.4358 12.951C16.3645 12.8797 16.2797 12.8236 16.1863 12.7859C16.0929 12.7482 15.9929 12.7296 15.8922 12.7314C15.7915 12.7332 15.6922 12.7552 15.6002 12.7962C15.5082 12.8372 15.4254 12.8963 15.3567 12.97L13.6367 14.69V10.5Z" fill="#697D99"/>
</svg>
