<svg width="25" height="24" viewBox="0 0 25 24" fill="none" xmlns="http://www.w3.org/2000/svg">
<path d="M6.51172 1.5C5.47572 1.5 4.63672 2.34 4.63672 3.375V20.625C4.63672 21.66 5.47672 22.5 6.51172 22.5H19.2617C20.2967 22.5 21.1367 21.66 21.1367 20.625V12.75C21.1367 11.7554 20.7416 10.8016 20.0384 10.0983C19.3351 9.39509 18.3813 9 17.3867 9H15.5117C15.0144 9 14.5375 8.80246 14.1859 8.45083C13.8343 8.09919 13.6367 7.62228 13.6367 7.125V5.25C13.6367 4.25544 13.2416 3.30161 12.5384 2.59835C11.8351 1.89509 10.8813 1.5 9.88672 1.5H6.51172Z" fill="#697D99"/>
<path d="M13.8594 1.81641C14.6859 2.76937 15.1401 3.98895 15.1384 5.25041V7.12541C15.1384 7.33241 15.3064 7.50041 15.5134 7.50041H17.3884C18.6498 7.49865 19.8694 7.95289 20.8224 8.77941C20.3824 7.10611 19.5059 5.57971 18.2825 4.35629C17.0591 3.13288 15.5327 2.25637 13.8594 1.81641Z" fill="#697D99"/>
</svg>
