<svg class="home-icon" width="25" height="24" viewBox="0 0 25 24" xmlns="http://www.w3.org/2000/svg">
<g clip-path="url(#clip0_147_1127)">
<path d="M9.91093 19.0007V14.0007H14.3897V19.0007C14.3897 19.5507 14.8936 20.0007 15.5094 20.0007H18.8685C19.4843 20.0007 19.9882 19.5507 19.9882 19.0007V12.0007H21.8916C22.4067 12.0007 22.653 11.4307 22.2611 11.1307L12.9005 3.6007C12.475 3.2607 11.8256 3.2607 11.4001 3.6007L2.0395 11.1307C1.65881 11.4307 1.89394 12.0007 2.409 12.0007H4.31248V19.0007C4.31248 19.5507 4.81634 20.0007 5.43217 20.0007H8.79124C9.40707 20.0007 9.91093 19.5507 9.91093 19.0007Z" fill="#697D99"/>
</g>
<defs>
<clipPath id="clip0_147_1127">
<rect width="24" height="24" fill="white" transform="translate(0.152344)"/>
</clipPath>
</defs>
</svg>
