<svg width="25" height="24" viewBox="0 0 25 24" fill="none" xmlns="http://www.w3.org/2000/svg">
<path d="M2.38672 8.66992V17.2499C2.38672 18.0456 2.70279 18.8086 3.2654 19.3712C3.82801 19.9339 4.59107 20.2499 5.38672 20.2499H20.3867C21.1824 20.2499 21.9454 19.9339 22.508 19.3712C23.0706 18.8086 23.3867 18.0456 23.3867 17.2499V8.66992L14.4587 14.1629C13.986 14.4538 13.4418 14.6078 12.8867 14.6078C12.3317 14.6078 11.7875 14.4538 11.3147 14.1629L2.38672 8.66992Z" fill="#697D99"/>
<path d="M23.3867 6.908V6.75C23.3867 5.95435 23.0706 5.19129 22.508 4.62868C21.9454 4.06607 21.1824 3.75 20.3867 3.75H5.38672C4.59107 3.75 3.82801 4.06607 3.2654 4.62868C2.70279 5.19129 2.38672 5.95435 2.38672 6.75V6.908L12.1007 12.886C12.3371 13.0314 12.6092 13.1084 12.8867 13.1084C13.1643 13.1084 13.4363 13.0314 13.6727 12.886L23.3867 6.908Z" fill="#697D99"/>
</svg>
