<svg width="25" height="24" viewBox="0 0 25 24" fill="none" xmlns="http://www.w3.org/2000/svg">
<path d="M8.38672 3.375C8.38672 2.339 9.22672 1.5 10.2617 1.5H10.6367C11.6313 1.5 12.5851 1.89509 13.2884 2.59835C13.9916 3.30161 14.3867 4.25544 14.3867 5.25V7.125C14.3867 8.161 15.2267 9 16.2617 9H18.1367C19.1313 9 20.0851 9.39509 20.7884 10.0983C21.4916 10.8016 21.8867 11.7554 21.8867 12.75V16.125C21.8867 17.16 21.0467 18 20.0117 18H10.2617C9.76444 18 9.28752 17.8025 8.93589 17.4508C8.58426 17.0992 8.38672 16.6223 8.38672 16.125V3.375Z" fill="#697D99"/>
<path d="M15.8867 5.25041C15.8885 3.98895 15.4342 2.76937 14.6077 1.81641C16.281 2.25637 17.8074 3.13288 19.0308 4.35629C20.2542 5.57971 21.1308 7.10611 21.5707 8.77941C20.6178 7.95289 19.3982 7.49865 18.1367 7.50041H16.2617C16.1623 7.50041 16.0669 7.4609 15.9966 7.39057C15.9262 7.32024 15.8867 7.22486 15.8867 7.12541V5.25041ZM5.76172 6.00041H6.88672V16.1254C6.88672 17.0205 7.2423 17.879 7.87523 18.5119C8.50817 19.1448 9.36661 19.5004 10.2617 19.5004H17.3867V20.6254C17.3867 21.6604 16.5467 22.5004 15.5117 22.5004H5.76172C5.26444 22.5004 4.78752 22.3029 4.43589 21.9512C4.08426 21.5996 3.88672 21.1227 3.88672 20.6254V7.87541C3.88672 6.83941 4.72672 6.00041 5.76172 6.00041Z" fill="#697D99"/>
</svg>
