<svg width="1566" height="778" viewBox="0 0 1566 778" fill="none" xmlns="http://www.w3.org/2000/svg">
<g clip-path="url(#clip0_394_487)">
<rect width="1567" height="933" transform="translate(0 0.5)" fill="#060322"/>
<g style="mix-blend-mode:hard-light" filter="url(#filter0_f_394_487)">
<ellipse cx="783.5" cy="467" rx="412.622" ry="326.243" fill="#2A34F2"/>
</g>
<g style="mix-blend-mode:soft-light" clip-path="url(#clip1_394_487)">
<rect x="-30.4278" y="-179.391" width="108.151" height="1991.6" stroke="#E6E6E6" stroke-width="1.14455"/>
<rect x="77.7238" y="-179.391" width="108.151" height="1991.6" stroke="#E6E6E6" stroke-width="1.14455"/>
<rect x="185.875" y="-179.391" width="108.151" height="1991.6" stroke="#E6E6E6" stroke-width="1.14455"/>
<rect x="294.026" y="-179.391" width="108.999" height="1991.6" stroke="#E6E6E6" stroke-width="1.14455"/>
<rect x="403.025" y="-179.391" width="108.999" height="1991.6" stroke="#E6E6E6" stroke-width="1.14455"/>
<rect x="512.024" y="-179.391" width="108.999" height="1991.6" stroke="#E6E6E6" stroke-width="1.14455"/>
<rect x="621.023" y="-179.391" width="108.999" height="1991.6" stroke="#E6E6E6" stroke-width="1.14455"/>
<rect x="730.021" y="-179.391" width="108.999" height="1991.6" stroke="#E6E6E6" stroke-width="1.14455"/>
<rect x="839.02" y="-179.391" width="108.999" height="1991.6" stroke="#E6E6E6" stroke-width="1.14455"/>
<rect x="948.019" y="-179.391" width="108.999" height="1991.6" stroke="#E6E6E6" stroke-width="1.14455"/>
<rect x="1057.02" y="-179.391" width="108.999" height="1991.6" stroke="#E6E6E6" stroke-width="1.14455"/>
<rect x="1166.02" y="-179.391" width="108.999" height="1991.6" stroke="#E6E6E6" stroke-width="1.14455"/>
<rect x="1275.01" y="-179.391" width="108.151" height="1991.6" stroke="#E6E6E6" stroke-width="1.14455"/>
<rect x="1383.17" y="-179.391" width="108.151" height="1991.6" stroke="#E6E6E6" stroke-width="1.14455"/>
<rect x="1491.32" y="-179.391" width="108.151" height="1991.6" stroke="#E6E6E6" stroke-width="1.14455"/>
<rect x="1780.71" y="1.07516" width="108.151" height="1991.6" transform="rotate(90 1780.71 1.07516)" stroke="#E6E6E6" stroke-width="1.14455"/>
<rect x="1780.71" y="109.227" width="108.151" height="1991.6" transform="rotate(90 1780.71 109.227)" stroke="#E6E6E6" stroke-width="1.14455"/>
<rect x="1780.71" y="217.378" width="108.151" height="1991.6" transform="rotate(90 1780.71 217.378)" stroke="#E6E6E6" stroke-width="1.14455"/>
<rect x="1780.71" y="325.529" width="108.999" height="1991.6" transform="rotate(90 1780.71 325.529)" stroke="#E6E6E6" stroke-width="1.14455"/>
<rect x="1780.71" y="434.528" width="108.999" height="1991.6" transform="rotate(90 1780.71 434.528)" stroke="#E6E6E6" stroke-width="1.14455"/>
<rect x="1780.71" y="543.527" width="108.999" height="1991.6" transform="rotate(90 1780.71 543.527)" stroke="#E6E6E6" stroke-width="1.14455"/>
<rect x="1780.71" y="652.526" width="108.999" height="1991.6" transform="rotate(90 1780.71 652.526)" stroke="#E6E6E6" stroke-width="1.14455"/>
<rect x="1780.71" y="761.524" width="108.999" height="1991.6" transform="rotate(90 1780.71 761.524)" stroke="#E6E6E6" stroke-width="1.14455"/>
<rect x="-30.9529" y="325.819" width="108.449" height="108.449" fill="#E6E6E6" fill-opacity="0.4"/>
<rect x="185.097" y="434.267" width="108.449" height="108.449" fill="#E6E6E6" fill-opacity="0.4"/>
<rect x="403.059" y="325.369" width="108.449" height="108.449" fill="#E6E6E6" fill-opacity="0.4"/>
<rect x="185.05" y="108.104" width="108.449" height="108.449" fill="#E6E6E6" fill-opacity="0.4"/>
<rect x="1057.43" y="109.121" width="108.449" height="108.449" fill="#E6E6E6" fill-opacity="0.4"/>
<rect x="1383.07" y="217.4" width="108.449" height="108.449" fill="#E6E6E6" fill-opacity="0.4"/>
<rect x="1490.67" y="543.594" width="108.449" height="108.449" fill="#E6E6E6" fill-opacity="0.4"/>
</g>
</g>
<g clip-path="url(#clip2_394_487)">
<rect width="1567" height="933" transform="translate(0 0.5)" fill="#060322"/>
<g style="mix-blend-mode:hard-light" filter="url(#filter1_f_394_487)">
<ellipse cx="783.5" cy="467" rx="412.622" ry="326.243" fill="#2A34F2"/>
</g>
<g style="mix-blend-mode:soft-light" clip-path="url(#clip3_394_487)">
<rect x="-30.4278" y="-179.391" width="108.151" height="1991.6" stroke="#E6E6E6" stroke-width="1.14455"/>
<rect x="77.7238" y="-179.391" width="108.151" height="1991.6" stroke="#E6E6E6" stroke-width="1.14455"/>
<rect x="185.875" y="-179.391" width="108.151" height="1991.6" stroke="#E6E6E6" stroke-width="1.14455"/>
<rect x="294.026" y="-179.391" width="108.999" height="1991.6" stroke="#E6E6E6" stroke-width="1.14455"/>
<rect x="403.025" y="-179.391" width="108.999" height="1991.6" stroke="#E6E6E6" stroke-width="1.14455"/>
<rect x="512.024" y="-179.391" width="108.999" height="1991.6" stroke="#E6E6E6" stroke-width="1.14455"/>
<rect x="621.023" y="-179.391" width="108.999" height="1991.6" stroke="#E6E6E6" stroke-width="1.14455"/>
<rect x="730.021" y="-179.391" width="108.999" height="1991.6" stroke="#E6E6E6" stroke-width="1.14455"/>
<rect x="839.02" y="-179.391" width="108.999" height="1991.6" stroke="#E6E6E6" stroke-width="1.14455"/>
<rect x="948.019" y="-179.391" width="108.999" height="1991.6" stroke="#E6E6E6" stroke-width="1.14455"/>
<rect x="1057.02" y="-179.391" width="108.999" height="1991.6" stroke="#E6E6E6" stroke-width="1.14455"/>
<rect x="1166.02" y="-179.391" width="108.999" height="1991.6" stroke="#E6E6E6" stroke-width="1.14455"/>
<rect x="1275.01" y="-179.391" width="108.151" height="1991.6" stroke="#E6E6E6" stroke-width="1.14455"/>
<rect x="1383.17" y="-179.391" width="108.151" height="1991.6" stroke="#E6E6E6" stroke-width="1.14455"/>
<rect x="1491.32" y="-179.391" width="108.151" height="1991.6" stroke="#E6E6E6" stroke-width="1.14455"/>
<rect x="1780.71" y="1.07516" width="108.151" height="1991.6" transform="rotate(90 1780.71 1.07516)" stroke="#E6E6E6" stroke-width="1.14455"/>
<rect x="1780.71" y="109.227" width="108.151" height="1991.6" transform="rotate(90 1780.71 109.227)" stroke="#E6E6E6" stroke-width="1.14455"/>
<rect x="1780.71" y="217.378" width="108.151" height="1991.6" transform="rotate(90 1780.71 217.378)" stroke="#E6E6E6" stroke-width="1.14455"/>
<rect x="1780.71" y="325.529" width="108.999" height="1991.6" transform="rotate(90 1780.71 325.529)" stroke="#E6E6E6" stroke-width="1.14455"/>
<rect x="1780.71" y="434.528" width="108.999" height="1991.6" transform="rotate(90 1780.71 434.528)" stroke="#E6E6E6" stroke-width="1.14455"/>
<rect x="1780.71" y="543.527" width="108.999" height="1991.6" transform="rotate(90 1780.71 543.527)" stroke="#E6E6E6" stroke-width="1.14455"/>
<rect x="1780.71" y="652.526" width="108.999" height="1991.6" transform="rotate(90 1780.71 652.526)" stroke="#E6E6E6" stroke-width="1.14455"/>
<rect x="1780.71" y="761.524" width="108.999" height="1991.6" transform="rotate(90 1780.71 761.524)" stroke="#E6E6E6" stroke-width="1.14455"/>
<rect x="-30.9529" y="325.819" width="108.449" height="108.449" fill="#E6E6E6" fill-opacity="0.4"/>
<rect x="185.097" y="434.267" width="108.449" height="108.449" fill="#E6E6E6" fill-opacity="0.4"/>
<rect x="403.059" y="325.369" width="108.449" height="108.449" fill="#E6E6E6" fill-opacity="0.4"/>
<rect x="185.05" y="108.104" width="108.449" height="108.449" fill="#E6E6E6" fill-opacity="0.4"/>
<rect x="1057.43" y="109.121" width="108.449" height="108.449" fill="#E6E6E6" fill-opacity="0.4"/>
<rect x="1383.07" y="217.4" width="108.449" height="108.449" fill="#E6E6E6" fill-opacity="0.4"/>
<rect x="1490.67" y="543.594" width="108.449" height="108.449" fill="#E6E6E6" fill-opacity="0.4"/>
</g>
</g>
<defs>
<filter id="filter0_f_394_487" x="-129.122" y="-359.243" width="1825.24" height="1652.49" filterUnits="userSpaceOnUse" color-interpolation-filters="sRGB">
<feFlood flood-opacity="0" result="BackgroundImageFix"/>
<feBlend mode="normal" in="SourceGraphic" in2="BackgroundImageFix" result="shape"/>
<feGaussianBlur stdDeviation="250" result="effect1_foregroundBlur_394_487"/>
</filter>
<filter id="filter1_f_394_487" x="-129.122" y="-359.243" width="1825.24" height="1652.49" filterUnits="userSpaceOnUse" color-interpolation-filters="sRGB">
<feFlood flood-opacity="0" result="BackgroundImageFix"/>
<feBlend mode="normal" in="SourceGraphic" in2="BackgroundImageFix" result="shape"/>
<feGaussianBlur stdDeviation="250" result="effect1_foregroundBlur_394_487"/>
</filter>
<clipPath id="clip0_394_487">
<rect width="1567" height="933" fill="white" transform="translate(0 0.5)"/>
</clipPath>
<clipPath id="clip1_394_487">
<rect width="1630.97" height="1630.97" fill="white" transform="translate(-31 0.50293)"/>
</clipPath>
<clipPath id="clip2_394_487">
<rect width="1567" height="933" fill="white" transform="translate(0 0.5)"/>
</clipPath>
<clipPath id="clip3_394_487">
<rect width="1630.97" height="1630.97" fill="white" transform="translate(-31 0.50293)"/>
</clipPath>
</defs>
</svg>
