<svg width="16" height="16" viewBox="0 0 16 16" fill="none" xmlns="http://www.w3.org/2000/svg">
<g clip-path="url(#clip0_183_29817)">
<path d="M8 0.5V3H3V8H0.5C0.5 12.15 3.85 15.5 8 15.5C12.15 15.5 15.5 12.15 15.5 8C15.5 3.85 12.15 0.5 8 0.5Z" fill="#2A5F9E"/>
<path d="M3.5 2C1.675 3.375 0.5 5.55 0.5 8H3.5V2Z" fill="white"/>
<path d="M2 3.5H8V0.5C5.55 0.5 3.375 1.675 2 3.5Z" fill="white"/>
<path d="M2.4502 2.95059L6.5002 8.00059H8.0002V6.12559L4.2752 1.47559C3.6002 1.87559 2.9752 2.37559 2.4502 2.95059Z" fill="white"/>
<path d="M8 1.25H4.725C3.225 1.975 1.975 3.225 1.25 4.725V8H2.75V2.75H8V1.25Z" fill="#ED4C5C"/>
<path d="M8 6.775L4.75 2.75H3.25L7.5 8H8V6.775Z" fill="#ED4C5C"/>
<path d="M9.27559 7.99961L9.52559 7.27461L8.85059 6.79961H9.70059L9.95059 6.09961L10.2006 6.79961H11.0506L10.3756 7.27461L10.6256 7.99961L9.95059 7.54961L9.27559 7.99961Z" fill="white"/>
<path d="M9.9498 7.375L10.3498 7.65L10.1998 7.2L10.5998 6.925H10.0998L9.9498 6.5L9.7998 6.925H9.2998L9.6998 7.2L9.5498 7.65L9.9498 7.375Z" fill="#ED4C5C"/>
<path d="M13.6506 7.99961L13.9006 7.27461L13.2256 6.79961H14.0756L14.3256 6.09961L14.5756 6.79961H15.4256L14.7506 7.27461L15.0006 7.99961L14.3256 7.54961L13.6506 7.99961Z" fill="white"/>
<path d="M14.3248 7.375L14.7248 7.65L14.5748 7.2L14.9748 6.925H14.4748L14.3248 6.5L14.1748 6.925H13.6748L14.0748 7.2L13.9248 7.65L14.3248 7.375Z" fill="#ED4C5C"/>
<path d="M11.4748 5.42539L11.7248 4.70039L11.0498 4.22539H11.8998L12.1498 3.52539L12.3998 4.22539H13.2498L12.5748 4.70039L12.8248 5.42539L12.1498 4.97539L11.4748 5.42539Z" fill="white"/>
<path d="M12.125 4.7998L12.525 5.0748L12.375 4.6248L12.775 4.3498H12.3L12.125 3.9248L12 4.3498H11.5L11.9 4.6248L11.75 5.0748L12.125 4.7998Z" fill="#ED4C5C"/>
<path d="M11.2498 12.1748L11.5748 11.2248L10.6748 10.5998H11.7998L12.1248 9.6748L12.4498 10.5998H13.5498L12.6498 11.2248L12.9748 12.1748L12.0998 11.5748L11.2498 12.1748Z" fill="white"/>
<path d="M12.1248 11.3502L12.6498 11.7002L12.4748 11.1252L12.9748 10.7502H12.3498L12.1248 10.2002L11.9498 10.7502H11.2998L11.7998 11.1252L11.6248 11.7002L12.1248 11.3502Z" fill="#ED4C5C"/>
<path d="M3.15039 2.75H6.20039V3.5H3.15039V2.75Z" fill="white"/>
</g>
<defs>
<clipPath id="clip0_183_29817">
<rect width="16" height="16" fill="white"/>
</clipPath>
</defs>
</svg>
