<svg width="16" height="16" viewBox="0 0 16 16" fill="none" xmlns="http://www.w3.org/2000/svg">
<g clip-path="url(#clip0_183_29810)">
<path d="M8 0.5V3H3V8H0.5C0.5 12.15 3.85 15.5 8 15.5C12.15 15.5 15.5 12.15 15.5 8C15.5 3.85 12.15 0.5 8 0.5Z" fill="#2A5F9E"/>
<path d="M8 0.5C6.825 0.5 5.725 0.775 4.725 1.25V2.75H2.75V4.725H1.25C0.775 5.725 0.5 6.825 0.5 8H3.5V4.25L6.5 8H8V6.125L5.9 3.5H8V0.5Z" fill="white"/>
<path d="M3.84961 3.5L7.49961 8H7.99961V6.775L5.34961 3.5H3.84961Z" fill="#ED4C5C"/>
<path d="M8 1.25H4.725C3.225 1.975 1.975 3.225 1.25 4.725V8H2.75V2.75H8V1.25Z" fill="#ED4C5C"/>
<path d="M2 8.925L2.55 8.25L2.375 9.125L3.25 9.15L2.475 9.55L3 10.25L2.225 9.9L2 10.75L1.775 9.9L1 10.25L1.525 9.55L0.75 9.15L1.625 9.125L1.45 8.25L2 8.925ZM13 5.05L13.45 4.5L13.3 5.2L14 5.225L13.375 5.55L13.8 6.1L13.175 5.8L13 6.5L12.825 5.8L12.2 6.1L12.625 5.55L12 5.225L12.7 5.2L12.55 4.5L13 5.05ZM13 10.05L13.45 9.5L13.3 10.2L14 10.225L13.375 10.55L13.8 11.1L13.175 10.8L13 11.5L12.825 10.8L12.2 11.1L12.625 10.55L12 10.225L12.7 10.2L12.55 9.5L13 10.05ZM10.5 6.55L10.95 6L10.8 6.7L11.5 6.725L10.875 7.05L11.3 7.6L10.675 7.3L10.5 8L10.325 7.3L9.7 7.6L10.125 7.05L9.5 6.725L10.2 6.7L10.05 6L10.5 6.55Z" fill="white"/>
</g>
<defs>
<clipPath id="clip0_183_29810">
<rect width="16" height="16" fill="white"/>
</clipPath>
</defs>
</svg>
