<svg width="48" height="48" viewBox="0 0 48 48" fill="none" xmlns="http://www.w3.org/2000/svg">
	<rect width="48" height="48" rx="10.6667" fill="#F3F1EE" />
	<path
		d="M23.8668 15.6818C24.6983 15.6818 25.3723 15.0078 25.3723 14.1764C25.3723 13.3449 24.6983 12.6709 23.8668 12.6709C23.0354 12.6709 22.3613 13.3449 22.3613 14.1764C22.3613 15.0078 23.0354 15.6818 23.8668 15.6818Z"
		fill="#9D8B74"
		fill-opacity="0.898"
	/>
	<path
		d="M30.8193 18.5336C31.651 18.5336 32.3251 17.8595 32.3251 17.0278C32.3251 16.1962 31.651 15.522 30.8193 15.522C29.9877 15.522 29.3135 16.1962 29.3135 17.0278C29.3135 17.8595 29.9877 18.5336 30.8193 18.5336Z"
		fill="#9D8B74"
		fill-opacity="0.898"
	/>
	<path
		d="M16.9329 18.5768C17.7648 18.5768 18.4391 17.9025 18.4391 17.0706C18.4391 16.2388 17.7648 15.5645 16.9329 15.5645C16.1011 15.5645 15.4268 16.2388 15.4268 17.0706C15.4268 17.9025 16.1011 18.5768 16.9329 18.5768Z"
		fill="#9D8B74"
		fill-opacity="0.898"
	/>
	<path
		d="M21.5983 19.4765C22.2039 19.4765 22.6947 18.9856 22.6947 18.3801C22.6947 17.7746 22.2039 17.2837 21.5983 17.2837C20.9928 17.2837 20.502 17.7746 20.502 18.3801C20.502 18.9856 20.9928 19.4765 21.5983 19.4765Z"
		fill="#8C7C67"
		fill-opacity="0.8"
	/>
	<path
		d="M26.2429 19.4965C26.8484 19.4965 27.3393 19.0056 27.3393 18.4001C27.3393 17.7946 26.8484 17.3037 26.2429 17.3037C25.6374 17.3037 25.1465 17.7946 25.1465 18.4001C25.1465 19.0056 25.6374 19.4965 26.2429 19.4965Z"
		fill="#8C7C67"
		fill-opacity="0.8"
	/>
	<path
		d="M18.2999 22.7462C18.9056 22.7462 19.3966 22.2552 19.3966 21.6495C19.3966 21.0438 18.9056 20.5527 18.2999 20.5527C17.6942 20.5527 17.2031 21.0438 17.2031 21.6495C17.2031 22.2552 17.6942 22.7462 18.2999 22.7462Z"
		fill="#8C7C67"
		fill-opacity="0.8"
	/>
	<path
		d="M29.5144 22.7929C30.1199 22.7929 30.6107 22.302 30.6107 21.6965C30.6107 21.091 30.1199 20.6001 29.5144 20.6001C28.9088 20.6001 28.418 21.091 28.418 21.6965C28.418 22.302 28.9088 22.7929 29.5144 22.7929Z"
		fill="#8C7C67"
		fill-opacity="0.8"
	/>
	<path
		d="M23.8893 22.2791C24.3141 22.2791 24.6585 21.9347 24.6585 21.5099C24.6585 21.0851 24.3141 20.7407 23.8893 20.7407C23.4645 20.7407 23.1201 21.0851 23.1201 21.5099C23.1201 21.9347 23.4645 22.2791 23.8893 22.2791Z"
		fill="#695D4D"
		fill-opacity="0.6"
	/>
	<path
		d="M32.2112 23.9823C32.2127 24.8258 32.8901 25.5084 33.7243 25.5069C34.5586 25.5055 35.2336 24.8205 35.2322 23.977C35.2307 23.1335 34.5532 22.4509 33.719 22.4523C32.8848 22.4538 32.2097 23.1388 32.2112 23.9823Z"
		fill="#9D8B74"
		fill-opacity="0.898"
	/>
	<path
		d="M14.0742 25.5268C14.9058 25.5268 15.58 24.8526 15.58 24.021C15.58 23.1893 14.9058 22.5151 14.0742 22.5151C13.2425 22.5151 12.5684 23.1893 12.5684 24.021C12.5684 24.8526 13.2425 25.5268 14.0742 25.5268Z"
		fill="#9D8B74"
		fill-opacity="0.898"
	/>
	<path
		d="M26.3874 24.7679C26.8144 24.7679 27.1605 24.4218 27.1605 23.9948C27.1605 23.5678 26.8144 23.2217 26.3874 23.2217C25.9604 23.2217 25.6143 23.5678 25.6143 23.9948C25.6143 24.4218 25.9604 24.7679 26.3874 24.7679Z"
		fill="#695D4D"
		fill-opacity="0.6"
	/>
	<path
		d="M21.4075 24.774C21.8321 24.774 22.1763 24.4298 22.1763 24.0052C22.1763 23.5805 21.8321 23.2363 21.4075 23.2363C20.9829 23.2363 20.6387 23.5805 20.6387 24.0052C20.6387 24.4298 20.9829 24.774 21.4075 24.774Z"
		fill="#695D4D"
		fill-opacity="0.6"
	/>
	<path
		d="M18.2764 27.3898C18.8821 27.3898 19.3732 26.8987 19.3732 26.293C19.3732 25.6873 18.8821 25.1963 18.2764 25.1963C17.6707 25.1963 17.1797 25.6873 17.1797 26.293C17.1797 26.8987 17.6707 27.3898 18.2764 27.3898Z"
		fill="#8C7C67"
		fill-opacity="0.8"
	/>
	<path
		d="M29.495 27.4525C30.1039 27.4525 30.5975 26.9589 30.5975 26.35C30.5975 25.7411 30.1039 25.2476 29.495 25.2476C28.8862 25.2476 28.3926 25.7411 28.3926 26.35C28.3926 26.9589 28.8862 27.4525 29.495 27.4525Z"
		fill="#8C7C67"
		fill-opacity="0.8"
	/>
	<path
		d="M23.9008 27.26C24.326 27.26 24.6707 26.9153 24.6707 26.4901C24.6707 26.0649 24.326 25.7202 23.9008 25.7202C23.4756 25.7202 23.1309 26.0649 23.1309 26.4901C23.1309 26.9153 23.4756 27.26 23.9008 27.26Z"
		fill="#695D4D"
		fill-opacity="0.6"
	/>
	<path
		d="M21.5427 30.6913C22.1482 30.6913 22.6391 30.2004 22.6391 29.5949C22.6391 28.9894 22.1482 28.4985 21.5427 28.4985C20.9372 28.4985 20.4463 28.9894 20.4463 29.5949C20.4463 30.2004 20.9372 30.6913 21.5427 30.6913Z"
		fill="#8C7C67"
		fill-opacity="0.8"
	/>
	<path
		d="M26.1872 30.7186C26.7927 30.7186 27.2836 30.2278 27.2836 29.6223C27.2836 29.0167 26.7927 28.5259 26.1872 28.5259C25.5817 28.5259 25.0908 29.0167 25.0908 29.6223C25.0908 30.2278 25.5817 30.7186 26.1872 30.7186Z"
		fill="#8C7C67"
		fill-opacity="0.8"
	/>
	<path
		d="M30.8482 32.448C31.6797 32.448 32.3537 31.7739 32.3537 30.9425C32.3537 30.111 31.6797 29.437 30.8482 29.437C30.0168 29.437 29.3428 30.111 29.3428 30.9425C29.3428 31.7739 30.0168 32.448 30.8482 32.448Z"
		fill="#9D8B74"
		fill-opacity="0.898"
	/>
	<path
		d="M16.9619 32.4628C17.7935 32.4628 18.4677 31.7887 18.4677 30.957C18.4677 30.1254 17.7935 29.4512 16.9619 29.4512C16.1302 29.4512 15.4561 30.1254 15.4561 30.957C15.4561 31.7887 16.1302 32.4628 16.9619 32.4628Z"
		fill="#9D8B74"
		fill-opacity="0.898"
	/>
	<path
		d="M23.9082 35.329C24.7398 35.329 25.414 34.6549 25.414 33.8232C25.414 32.9916 24.7398 32.3174 23.9082 32.3174C23.0765 32.3174 22.4023 32.9916 22.4023 33.8232C22.4023 34.6549 23.0765 35.329 23.9082 35.329Z"
		fill="#9D8B74"
		fill-opacity="0.898"
	/>
</svg>
