<svg width="72" height="72" viewBox="0 0 72 72" fill="none" xmlns="http://www.w3.org/2000/svg">
<rect width="72" height="72" rx="16" fill="#E4F8EB"/>
<path d="M25.8535 25C24.7926 25 23.7752 25.4214 23.0251 26.1716C22.2749 26.9217 21.8535 27.9391 21.8535 29V30H49.8535V29C49.8535 27.9391 49.4321 26.9217 48.6819 26.1716C47.9318 25.4214 46.9144 25 45.8535 25H25.8535Z" fill="#22C55E"/>
<path fill-rule="evenodd" clip-rule="evenodd" d="M49.8535 33H21.8535V43C21.8535 44.0609 22.2749 45.0783 23.0251 45.8284C23.7752 46.5786 24.7926 47 25.8535 47H45.8535C46.9144 47 47.9318 46.5786 48.6819 45.8284C49.4321 45.0783 49.8535 44.0609 49.8535 43V33ZM25.8535 38C25.8535 37.7348 25.9589 37.4804 26.1464 37.2929C26.3339 37.1054 26.5883 37 26.8535 37H34.8535C35.1187 37 35.3731 37.1054 35.5606 37.2929C35.7482 37.4804 35.8535 37.7348 35.8535 38C35.8535 38.2652 35.7482 38.5196 35.5606 38.7071C35.3731 38.8946 35.1187 39 34.8535 39H26.8535C26.5883 39 26.3339 38.8946 26.1464 38.7071C25.9589 38.5196 25.8535 38.2652 25.8535 38ZM26.8535 41C26.5883 41 26.3339 41.1054 26.1464 41.2929C25.9589 41.4804 25.8535 41.7348 25.8535 42C25.8535 42.2652 25.9589 42.5196 26.1464 42.7071C26.3339 42.8946 26.5883 43 26.8535 43H30.8535C31.1187 43 31.3731 42.8946 31.5606 42.7071C31.7482 42.5196 31.8535 42.2652 31.8535 42C31.8535 41.7348 31.7482 41.4804 31.5606 41.2929C31.3731 41.1054 31.1187 41 30.8535 41H26.8535Z" fill="#22C55E"/>
</svg>
