<svg width="72" height="72" viewBox="0 0 72 72" fill="none" xmlns="http://www.w3.org/2000/svg">
<rect width="72" height="72" rx="16" fill="#F3F1EE"/>
<path d="M35.8012 23.5223C37.0484 23.5223 38.0594 22.5112 38.0594 21.2641C38.0594 20.0169 37.0484 19.0059 35.8012 19.0059C34.554 19.0059 33.543 20.0169 33.543 21.2641C33.543 22.5112 34.554 23.5223 35.8012 23.5223Z" fill="#9D8B74" fill-opacity="0.898"/>
<path d="M46.2294 27.8007C47.4769 27.8007 48.4882 26.7894 48.4882 25.5419C48.4882 24.2945 47.4769 23.2832 46.2294 23.2832C44.982 23.2832 43.9707 24.2945 43.9707 25.5419C43.9707 26.7894 44.982 27.8007 46.2294 27.8007Z" fill="#9D8B74" fill-opacity="0.898"/>
<path d="M25.3999 27.8643C26.6477 27.8643 27.6592 26.8528 27.6592 25.605C27.6592 24.3572 26.6477 23.3457 25.3999 23.3457C24.1521 23.3457 23.1406 24.3572 23.1406 25.605C23.1406 26.8528 24.1521 27.8643 25.3999 27.8643Z" fill="#9D8B74" fill-opacity="0.898"/>
<path d="M32.3985 29.2149C33.3068 29.2149 34.0431 28.4786 34.0431 27.5704C34.0431 26.6621 33.3068 25.9258 32.3985 25.9258C31.4902 25.9258 30.7539 26.6621 30.7539 27.5704C30.7539 28.4786 31.4902 29.2149 32.3985 29.2149Z" fill="#8C7C67" fill-opacity="0.8"/>
<path d="M39.3653 29.2442C40.2736 29.2442 41.0099 28.5079 41.0099 27.5997C41.0099 26.6914 40.2736 25.9551 39.3653 25.9551C38.457 25.9551 37.7207 26.6914 37.7207 27.5997C37.7207 28.5079 38.457 29.2442 39.3653 29.2442Z" fill="#8C7C67" fill-opacity="0.8"/>
<path d="M27.4518 34.1184C28.3603 34.1184 29.0969 33.3818 29.0969 32.4732C29.0969 31.5647 28.3603 30.8281 27.4518 30.8281C26.5432 30.8281 25.8066 31.5647 25.8066 32.4732C25.8066 33.3818 26.5432 34.1184 27.4518 34.1184Z" fill="#8C7C67" fill-opacity="0.8"/>
<path d="M44.2735 34.1895C45.1818 34.1895 45.9181 33.4532 45.9181 32.545C45.9181 31.6367 45.1818 30.9004 44.2735 30.9004C43.3652 30.9004 42.6289 31.6367 42.6289 32.545C42.6289 33.4532 43.3652 34.1895 44.2735 34.1895Z" fill="#8C7C67" fill-opacity="0.8"/>
<path d="M35.8354 33.4189C36.4726 33.4189 36.9892 32.9023 36.9892 32.2651C36.9892 31.6279 36.4726 31.1113 35.8354 31.1113C35.1982 31.1113 34.6816 31.6279 34.6816 32.2651C34.6816 32.9023 35.1982 33.4189 35.8354 33.4189Z" fill="#695D4D" fill-opacity="0.6"/>
<path d="M48.3183 35.9727C48.3205 37.2379 49.3367 38.2618 50.588 38.2596C51.8393 38.2575 52.8519 37.23 52.8497 35.9648C52.8475 34.6995 51.8313 33.6756 50.58 33.6778C49.3287 33.68 48.3161 34.7074 48.3183 35.9727Z" fill="#9D8B74" fill-opacity="0.898"/>
<path d="M21.1123 38.289C22.3597 38.289 23.371 37.2777 23.371 36.0302C23.371 34.7828 22.3597 33.7715 21.1123 33.7715C19.8648 33.7715 18.8535 34.7828 18.8535 36.0302C18.8535 37.2777 19.8648 38.289 21.1123 38.289Z" fill="#9D8B74" fill-opacity="0.898"/>
<path d="M39.5816 37.1514C40.222 37.1514 40.7412 36.6322 40.7412 35.9917C40.7412 35.3512 40.222 34.832 39.5816 34.832C38.9411 34.832 38.4219 35.3512 38.4219 35.9917C38.4219 36.6322 38.9411 37.1514 39.5816 37.1514Z" fill="#695D4D" fill-opacity="0.6"/>
<path d="M32.1122 37.16C32.7491 37.16 33.2655 36.6437 33.2655 36.0068C33.2655 35.3698 32.7491 34.8535 32.1122 34.8535C31.4753 34.8535 30.959 35.3698 30.959 36.0068C30.959 36.6437 31.4753 37.16 32.1122 37.16Z" fill="#695D4D" fill-opacity="0.6"/>
<path d="M27.4166 41.0852C28.3252 41.0852 29.0617 40.3486 29.0617 39.44C29.0617 38.5315 28.3252 37.7949 27.4166 37.7949C26.508 37.7949 25.7715 38.5315 25.7715 39.44C25.7715 40.3486 26.508 41.0852 27.4166 41.0852Z" fill="#8C7C67" fill-opacity="0.8"/>
<path d="M44.2435 41.1785C45.1569 41.1785 45.8972 40.4381 45.8972 39.5248C45.8972 38.6115 45.1569 37.8711 44.2435 37.8711C43.3302 37.8711 42.5898 38.6115 42.5898 39.5248C42.5898 40.4381 43.3302 41.1785 44.2435 41.1785Z" fill="#8C7C67" fill-opacity="0.8"/>
<path d="M35.8521 40.8898C36.4899 40.8898 37.007 40.3727 37.007 39.7349C37.007 39.0971 36.4899 38.5801 35.8521 38.5801C35.2143 38.5801 34.6973 39.0971 34.6973 39.7349C34.6973 40.3727 35.2143 40.8898 35.8521 40.8898Z" fill="#695D4D" fill-opacity="0.6"/>
<path d="M32.3145 46.0372C33.2228 46.0372 33.9591 45.3009 33.9591 44.3926C33.9591 43.4843 33.2228 42.748 32.3145 42.748C31.4062 42.748 30.6699 43.4843 30.6699 44.3926C30.6699 45.3009 31.4062 46.0372 32.3145 46.0372Z" fill="#8C7C67" fill-opacity="0.8"/>
<path d="M39.2813 46.0782C40.1896 46.0782 40.9259 45.3419 40.9259 44.4336C40.9259 43.5254 40.1896 42.7891 39.2813 42.7891C38.373 42.7891 37.6367 43.5254 37.6367 44.4336C37.6367 45.3419 38.373 46.0782 39.2813 46.0782Z" fill="#8C7C67" fill-opacity="0.8"/>
<path d="M46.2738 48.6707C47.521 48.6707 48.532 47.6597 48.532 46.4125C48.532 45.1653 47.521 44.1543 46.2738 44.1543C45.0267 44.1543 44.0156 45.1653 44.0156 46.4125C44.0156 47.6597 45.0267 48.6707 46.2738 48.6707Z" fill="#9D8B74" fill-opacity="0.898"/>
<path d="M25.4443 48.6933C26.6918 48.6933 27.703 47.682 27.703 46.4345C27.703 45.1871 26.6918 44.1758 25.4443 44.1758C24.1968 44.1758 23.1855 45.1871 23.1855 46.4345C23.1855 47.682 24.1968 48.6933 25.4443 48.6933Z" fill="#9D8B74" fill-opacity="0.898"/>
<path d="M35.8623 52.9941C37.1097 52.9941 38.121 51.9828 38.121 50.7353C38.121 49.4878 37.1097 48.4766 35.8623 48.4766C34.6148 48.4766 33.6035 49.4878 33.6035 50.7353C33.6035 51.9828 34.6148 52.9941 35.8623 52.9941Z" fill="#9D8B74" fill-opacity="0.898"/>
</svg>
