<svg width="72" height="72" viewBox="0 0 72 72" fill="none" xmlns="http://www.w3.org/2000/svg">
<rect width="72" height="72" rx="16" fill="#FDE8E8"/>
<path fill-rule="evenodd" clip-rule="evenodd" d="M27.3535 22C25.9722 22 24.8535 23.12 24.8535 24.5V47.5C24.8535 48.88 25.9735 50 27.3535 50H44.3535C45.7335 50 46.8535 48.88 46.8535 47.5V37C46.8535 35.6739 46.3267 34.4021 45.3891 33.4645C44.4514 32.5268 43.1796 32 41.8535 32H39.3535C38.6905 32 38.0546 31.7366 37.5857 31.2678C37.1169 30.7989 36.8535 30.163 36.8535 29.5V27C36.8535 25.6739 36.3267 24.4021 35.389 23.4645C34.4514 22.5268 33.1796 22 31.8535 22H27.3535ZM29.8535 40C29.8535 39.7348 29.9589 39.4804 30.1464 39.2929C30.3339 39.1054 30.5883 39 30.8535 39H40.8535C41.1187 39 41.3731 39.1054 41.5606 39.2929C41.7482 39.4804 41.8535 39.7348 41.8535 40C41.8535 40.2652 41.7482 40.5196 41.5606 40.7071C41.3731 40.8946 41.1187 41 40.8535 41H30.8535C30.5883 41 30.3339 40.8946 30.1464 40.7071C29.9589 40.5196 29.8535 40.2652 29.8535 40ZM30.8535 43C30.5883 43 30.3339 43.1054 30.1464 43.2929C29.9589 43.4804 29.8535 43.7348 29.8535 44C29.8535 44.2652 29.9589 44.5196 30.1464 44.7071C30.3339 44.8946 30.5883 45 30.8535 45H35.8535C36.1187 45 36.3731 44.8946 36.5606 44.7071C36.7482 44.5196 36.8535 44.2652 36.8535 44C36.8535 43.7348 36.7482 43.4804 36.5606 43.2929C36.3731 43.1054 36.1187 43 35.8535 43H30.8535Z" fill="#EF4444"/>
<path d="M37.1484 22.4219C38.2505 23.6925 38.8561 25.3186 38.8538 27.0005V29.5005C38.8538 29.7765 39.0778 30.0005 39.3538 30.0005H41.8538C43.5357 29.9982 45.1618 30.6039 46.4324 31.7059C45.8458 29.4748 44.6771 27.4396 43.0459 25.8084C41.4147 24.1772 39.3795 23.0085 37.1484 22.4219Z" fill="#EF4444"/>
</svg>
