<svg width="72" height="72" viewBox="0 0 72 72" fill="none" xmlns="http://www.w3.org/2000/svg">
<rect width="72" height="72" rx="16" fill="#F4F2FF"/>
<path d="M47.7047 52.9999H23.8959C23.4449 52.9999 23.0123 52.8207 22.6934 52.5018C22.3745 52.1829 22.1953 51.7503 22.1953 51.2993C22.1953 50.8482 22.3745 50.4157 22.6934 50.0967C23.0123 49.7778 23.4449 49.5986 23.8959 49.5986H47.7047C48.1557 49.5986 48.5882 49.7778 48.9072 50.0967C49.2261 50.4157 49.4053 50.8482 49.4053 51.2993C49.4053 51.7503 49.2261 52.1829 48.9072 52.5018C48.5882 52.8207 48.1557 52.9999 47.7047 52.9999Z" fill="#3B29F2"/>
<path d="M35.8013 46.1973C35.3503 46.1973 34.9178 46.018 34.599 45.6991L27.6264 38.7265C26.0104 37.1104 24.91 35.0513 24.4642 32.8098C24.0184 30.5682 24.2473 28.2448 25.1219 26.1333C25.9966 24.0218 27.4777 22.2171 29.378 20.9474C31.2783 19.6777 33.5125 19 35.7979 19C38.0834 19 40.3175 19.6777 42.2178 20.9474C44.1181 22.2171 45.5993 24.0218 46.4739 26.1333C47.3486 28.2448 47.5775 30.5682 47.1317 32.8098C46.6859 35.0513 45.5854 37.1104 43.9694 38.7265L36.9969 45.6991C36.6797 46.0164 36.25 46.1955 35.8013 46.1973Z" fill="#A799FF"/>
<path d="M35.7997 33.9607C37.6781 33.9607 39.2009 32.4379 39.2009 30.5594C39.2009 28.681 37.6781 27.1582 35.7997 27.1582C33.9212 27.1582 32.3984 28.681 32.3984 30.5594C32.3984 32.4379 33.9212 33.9607 35.7997 33.9607Z" fill="#3B29F2"/>
</svg>
