<svg width="72" height="72" viewBox="0 0 72 72" fill="none" xmlns="http://www.w3.org/2000/svg">
<rect width="72" height="72" rx="16" fill="#FEEEE3"/>
<path d="M21.8535 31.5605V43.0005C21.8535 44.0614 22.2749 45.0788 23.0251 45.829C23.7752 46.5791 24.7926 47.0005 25.8535 47.0005H45.8535C46.9144 47.0005 47.9318 46.5791 48.6819 45.829C49.4321 45.0788 49.8535 44.0614 49.8535 43.0005V31.5605L37.9495 38.8845C37.3192 39.2724 36.5936 39.4777 35.8535 39.4777C35.1134 39.4777 34.3879 39.2724 33.7575 38.8845L21.8535 31.5605Z" fill="#F97316"/>
<path d="M49.8535 29.2107V29C49.8535 27.9391 49.4321 26.9217 48.6819 26.1716C47.9318 25.4214 46.9144 25 45.8535 25H25.8535C24.7926 25 23.7752 25.4214 23.0251 26.1716C22.2749 26.9217 21.8535 27.9391 21.8535 29V29.2107L34.8055 37.1813C35.1207 37.3752 35.4835 37.4779 35.8535 37.4779C36.2236 37.4779 36.5863 37.3752 36.9015 37.1813L49.8535 29.2107Z" fill="#F97316"/>
</svg>
