<svg width="24" height="24" viewBox="0 0 25 24" fill="none" xmlns="http://www.w3.org/2000/svg">
<path fill-rule="evenodd" clip-rule="evenodd" d="M13.6605 15.707C13.4729 15.8944 13.2186 15.9998 12.9535 15.9998C12.6883 15.9998 12.434 15.8944 12.2465 15.707L6.58947 10.05C6.49396 9.95773 6.41778 9.84739 6.36537 9.72538C6.31296 9.60338 6.28537 9.47216 6.28422 9.33938C6.28306 9.2066 6.30837 9.07492 6.35865 8.95202C6.40893 8.82913 6.48318 8.71747 6.57707 8.62358C6.67097 8.52969 6.78262 8.45544 6.90551 8.40515C7.02841 8.35487 7.16009 8.32957 7.29287 8.33073C7.42565 8.33188 7.55687 8.35947 7.67887 8.41188C7.80088 8.46428 7.91122 8.54047 8.00347 8.63598L12.9535 13.586L17.9035 8.63598C18.0921 8.45382 18.3447 8.35302 18.6069 8.3553C18.8691 8.35758 19.1199 8.46275 19.3053 8.64816C19.4907 8.83357 19.5959 9.08438 19.5981 9.34658C19.6004 9.60877 19.4996 9.86137 19.3175 10.05L13.6605 15.707Z" fill="#D8E3FF"/>
</svg>
