<svg width="25" height="24" viewBox="0 0 25 24" fill="none" xmlns="http://www.w3.org/2000/svg">
<path d="M2.45312 8.66992V17.2499C2.45313 18.0456 2.7692 18.8086 3.3318 19.3712C3.89441 19.9339 4.65748 20.2499 5.45312 20.2499H20.4531C21.2488 20.2499 22.0118 19.9339 22.5744 19.3712C23.1371 18.8086 23.4531 18.0456 23.4531 17.2499V8.66992L14.5251 14.1629C14.0524 14.4538 13.5082 14.6078 12.9531 14.6078C12.3981 14.6078 11.8539 14.4538 11.3811 14.1629L2.45312 8.66992Z" fill="#D8E3FF"/>
<path d="M23.4531 6.908V6.75C23.4531 5.95435 23.1371 5.19129 22.5744 4.62868C22.0118 4.06607 21.2488 3.75 20.4531 3.75H5.45312C4.65748 3.75 3.89441 4.06607 3.3318 4.62868C2.7692 5.19129 2.45313 5.95435 2.45312 6.75V6.908L12.1671 12.886C12.4035 13.0314 12.6756 13.1084 12.9531 13.1084C13.2307 13.1084 13.5027 13.0314 13.7391 12.886L23.4531 6.908Z" fill="#D8E3FF"/>
</svg>
