<svg width="25" height="24" viewBox="0 0 25 24" fill="none" xmlns="http://www.w3.org/2000/svg">
<path fill-rule="evenodd" clip-rule="evenodd" d="M2.75 12C2.75 6.615 7.115 2.25 12.5 2.25C17.885 2.25 22.25 6.615 22.25 12C22.25 17.385 17.885 21.75 12.5 21.75C7.115 21.75 2.75 17.385 2.75 12ZM11.456 10.558C12.602 9.985 13.893 11.021 13.582 12.264L12.873 15.1L12.915 15.08C13.0912 15.0025 13.2905 14.9958 13.4715 15.0612C13.6526 15.1265 13.8016 15.259 13.8877 15.4312C13.9737 15.6033 13.9903 15.802 13.934 15.9861C13.8777 16.1702 13.7527 16.3255 13.585 16.42L13.545 16.442C12.398 17.015 11.107 15.979 11.418 14.736L12.128 11.9L12.086 11.92C11.9975 11.9692 11.9 11.9999 11.7994 12.0104C11.6987 12.0209 11.597 12.0109 11.5003 11.981C11.4036 11.9511 11.3139 11.902 11.2367 11.8366C11.1595 11.7711 11.0964 11.6907 11.051 11.6002C11.0057 11.5098 10.9792 11.411 10.9731 11.31C10.9669 11.209 10.9813 11.1078 11.0153 11.0124C11.0493 10.9171 11.1022 10.8297 11.1709 10.7553C11.2396 10.681 11.3226 10.6214 11.415 10.58L11.456 10.558ZM12.5 9C12.6989 9 12.8897 8.92098 13.0303 8.78033C13.171 8.63968 13.25 8.44891 13.25 8.25C13.25 8.05109 13.171 7.86032 13.0303 7.71967C12.8897 7.57902 12.6989 7.5 12.5 7.5C12.3011 7.5 12.1103 7.57902 11.9697 7.71967C11.829 7.86032 11.75 8.05109 11.75 8.25C11.75 8.44891 11.829 8.63968 11.9697 8.78033C12.1103 8.92098 12.3011 9 12.5 9Z" fill="#D97706"/>
</svg>
