<svg width="25" height="24" viewBox="0 0 25 24" fill="none" xmlns="http://www.w3.org/2000/svg">
<path fill-rule="evenodd" clip-rule="evenodd" d="M20.4531 21C21.2488 21 22.0118 20.6839 22.5744 20.1213C23.1371 19.5587 23.4531 18.7956 23.4531 18V9C23.4531 8.20435 23.1371 7.44129 22.5744 6.87868C22.0118 6.31607 21.2488 6 20.4531 6H15.0741C14.8753 5.99982 14.6846 5.92069 14.5441 5.78L12.4231 3.66C12.2143 3.45089 11.9663 3.28497 11.6933 3.17173C11.4203 3.05848 11.1277 3.00013 10.8321 3H5.45312C4.65748 3 3.89441 3.31607 3.3318 3.87868C2.7692 4.44129 2.45313 5.20435 2.45312 6V18C2.45313 18.7956 2.7692 19.5587 3.3318 20.1213C3.89441 20.6839 4.65748 21 5.45312 21H20.4531ZM13.7031 10.5C13.7031 10.3011 13.6241 10.1103 13.4835 9.96967C13.3428 9.82902 13.152 9.75 12.9531 9.75C12.7542 9.75 12.5634 9.82902 12.4228 9.96967C12.2821 10.1103 12.2031 10.3011 12.2031 10.5V14.69L10.4831 12.97C10.3409 12.8375 10.1529 12.7654 9.9586 12.7688C9.7643 12.7723 9.57892 12.851 9.4415 12.9884C9.30409 13.1258 9.22538 13.3112 9.22195 13.5055C9.21852 13.6998 9.29065 13.8878 9.42313 14.03L12.4231 17.03C12.5638 17.1705 12.7544 17.2493 12.9531 17.2493C13.1519 17.2493 13.3425 17.1705 13.4831 17.03L16.4831 14.03C16.5568 13.9613 16.6159 13.8785 16.6569 13.7865C16.6979 13.6945 16.7199 13.5952 16.7217 13.4945C16.7235 13.3938 16.705 13.2938 16.6672 13.2004C16.6295 13.107 16.5734 13.0222 16.5022 12.951C16.4309 12.8797 16.3461 12.8236 16.2527 12.7859C16.1593 12.7482 16.0593 12.7296 15.9586 12.7314C15.8579 12.7332 15.7586 12.7552 15.6666 12.7962C15.5746 12.8372 15.4918 12.8963 15.4231 12.97L13.7031 14.69V10.5Z" fill="#D8E3FF"/>
</svg>
