<svg width="25" height="24" viewBox="0 0 25 24" fill="none" xmlns="http://www.w3.org/2000/svg">
<path d="M12.0381 2.37595C12.1613 2.29382 12.306 2.25 12.4541 2.25C12.6021 2.25 12.7469 2.29382 12.8701 2.37595L21.8701 8.37595C21.9532 8.43005 22.0248 8.50011 22.0806 8.58207C22.1365 8.66402 22.1756 8.75624 22.1956 8.85339C22.2155 8.95054 22.2161 9.05069 22.1971 9.14805C22.1781 9.2454 22.14 9.33802 22.085 9.42054C22.03 9.50307 21.9591 9.57387 21.8766 9.62883C21.794 9.68379 21.7013 9.72184 21.604 9.74075C21.5066 9.75967 21.4065 9.75909 21.3093 9.73904C21.2122 9.71899 21.12 9.67987 21.0381 9.62395L12.4541 3.90095L3.87008 9.62395C3.70457 9.73168 3.50325 9.76978 3.30981 9.72999C3.11638 9.69019 2.94645 9.57571 2.8369 9.4114C2.72736 9.24708 2.68704 9.04619 2.72471 8.85233C2.76237 8.65847 2.87498 8.48729 3.03808 8.37595L12.0381 2.37595Z" fill="#D8E3FF"/>
<path fill-rule="evenodd" clip-rule="evenodd" d="M20.7031 10.332V20.25H21.4531C21.652 20.25 21.8428 20.329 21.9835 20.4697C22.1241 20.6103 22.2031 20.8011 22.2031 21C22.2031 21.1989 22.1241 21.3897 21.9835 21.5303C21.8428 21.671 21.652 21.75 21.4531 21.75H3.45312C3.25421 21.75 3.06345 21.671 2.92279 21.5303C2.78214 21.3897 2.70312 21.1989 2.70312 21C2.70312 20.8011 2.78214 20.6103 2.92279 20.4697C3.06345 20.329 3.25421 20.25 3.45312 20.25H4.20312V10.332C4.20336 10.1534 4.26735 9.98067 4.38357 9.84501C4.4998 9.70935 4.66063 9.61963 4.83712 9.592C7.35657 9.19722 9.90294 8.99929 12.4531 9C15.0431 9 17.5871 9.202 20.0691 9.592C20.2456 9.61963 20.4064 9.70935 20.5227 9.84501C20.6389 9.98067 20.7029 10.1534 20.7031 10.332ZM13.2031 12.75C13.2031 12.5511 13.1241 12.3603 12.9835 12.2197C12.8428 12.079 12.652 12 12.4531 12C12.2542 12 12.0634 12.079 11.9228 12.2197C11.7821 12.3603 11.7031 12.5511 11.7031 12.75V19.5C11.7031 19.6989 11.7821 19.8897 11.9228 20.0303C12.0634 20.171 12.2542 20.25 12.4531 20.25C12.652 20.25 12.8428 20.171 12.9835 20.0303C13.1241 19.8897 13.2031 19.6989 13.2031 19.5V12.75ZM16.2031 12C16.402 12 16.5928 12.079 16.7335 12.2197C16.8741 12.3603 16.9531 12.5511 16.9531 12.75V19.5C16.9531 19.6989 16.8741 19.8897 16.7335 20.0303C16.5928 20.171 16.402 20.25 16.2031 20.25C16.0042 20.25 15.8134 20.171 15.6728 20.0303C15.5321 19.8897 15.4531 19.6989 15.4531 19.5V12.75C15.4531 12.5511 15.5321 12.3603 15.6728 12.2197C15.8134 12.079 16.0042 12 16.2031 12ZM9.45312 12.75C9.45312 12.5511 9.37411 12.3603 9.23345 12.2197C9.0928 12.079 8.90204 12 8.70312 12C8.50421 12 8.31345 12.079 8.17279 12.2197C8.03214 12.3603 7.95313 12.5511 7.95312 12.75V19.5C7.95313 19.6989 8.03214 19.8897 8.17279 20.0303C8.31345 20.171 8.50421 20.25 8.70312 20.25C8.90204 20.25 9.0928 20.171 9.23345 20.0303C9.37411 19.8897 9.45312 19.6989 9.45312 19.5V12.75Z" fill="#D8E3FF"/>
<path d="M12.4531 7.875C12.7515 7.875 13.0376 7.75647 13.2486 7.5455C13.4596 7.33452 13.5781 7.04837 13.5781 6.75C13.5781 6.45163 13.4596 6.16548 13.2486 5.9545C13.0376 5.74353 12.7515 5.625 12.4531 5.625C12.1548 5.625 11.8686 5.74353 11.6576 5.9545C11.4467 6.16548 11.3281 6.45163 11.3281 6.75C11.3281 7.04837 11.4467 7.33452 11.6576 7.5455C11.8686 7.75647 12.1548 7.875 12.4531 7.875Z" fill="#D8E3FF"/>
</svg>
