<svg width="25" height="24" viewBox="0 0 25 24" fill="none" xmlns="http://www.w3.org/2000/svg">
<path fill-rule="evenodd" clip-rule="evenodd" d="M3.45312 6.75C3.45312 6.55109 3.53214 6.36032 3.67279 6.21967C3.81345 6.07902 4.00421 6 4.20312 6H20.7031C20.902 6 21.0928 6.07902 21.2335 6.21967C21.3741 6.36032 21.4531 6.55109 21.4531 6.75C21.4531 6.94891 21.3741 7.13968 21.2335 7.28033C21.0928 7.42098 20.902 7.5 20.7031 7.5H4.20312C4.00421 7.5 3.81345 7.42098 3.67279 7.28033C3.53214 7.13968 3.45312 6.94891 3.45312 6.75ZM3.45312 12C3.45312 11.8011 3.53214 11.6103 3.67279 11.4697C3.81345 11.329 4.00421 11.25 4.20312 11.25H20.7031C20.902 11.25 21.0928 11.329 21.2335 11.4697C21.3741 11.6103 21.4531 11.8011 21.4531 12C21.4531 12.1989 21.3741 12.3897 21.2335 12.5303C21.0928 12.671 20.902 12.75 20.7031 12.75H4.20312C4.00421 12.75 3.81345 12.671 3.67279 12.5303C3.53214 12.3897 3.45312 12.1989 3.45312 12ZM3.45312 17.25C3.45312 17.0511 3.53214 16.8603 3.67279 16.7197C3.81345 16.579 4.00421 16.5 4.20312 16.5H20.7031C20.902 16.5 21.0928 16.579 21.2335 16.7197C21.3741 16.8603 21.4531 17.0511 21.4531 17.25C21.4531 17.4489 21.3741 17.6397 21.2335 17.7803C21.0928 17.921 20.902 18 20.7031 18H4.20312C4.00421 18 3.81345 17.921 3.67279 17.7803C3.53214 17.6397 3.45312 17.4489 3.45312 17.25Z" fill="#D8E3FF"/>
</svg>
